<svg width="64" height="64" viewBox="0 0 64 64" fill="none" xmlns="http://www.w3.org/2000/svg">
<g filter="url(#filter0_d_1560_1086)">
<rect x="4" width="56" height="56" rx="5" fill="#0B1F56"/>
<path fill-rule="evenodd" clip-rule="evenodd" d="M41.8249 39.9803C38.7011 32.2945 35.055 30.2688 35.055 26.4358V21.9209H35.8187C36.0213 21.9209 36.2155 21.8416 36.3588 21.7005C36.502 21.5594 36.5825 21.368 36.5825 21.1684V19.6635C36.5825 19.4639 36.502 19.2725 36.3588 19.1314C36.2155 18.9903 36.0213 18.911 35.8187 18.911H28.1811C27.9786 18.911 27.7843 18.9903 27.6411 19.1314C27.4978 19.2725 27.4174 19.4639 27.4174 19.6635V21.1684C27.4174 21.368 27.4978 21.5594 27.6411 21.7005C27.7843 21.8416 27.9786 21.9209 28.1811 21.9209H28.9449V26.4358C28.9449 30.2688 25.2987 32.2945 22.1749 39.9803C21.1805 42.4258 18.6265 46 31.9999 46C45.3733 46 42.8193 42.4258 41.8249 39.9803ZM39.3549 42.6154C38.2826 42.9315 36.1487 43.2911 31.9999 43.2911C27.8512 43.2911 25.7172 42.9315 24.6449 42.6154C24.2646 42.5041 24.1164 42.0691 24.2508 41.6703C24.5869 40.662 25.2208 38.9193 26.4062 36.9734C29.3023 32.2193 32.307 37.7213 34.8075 37.7213C37.308 37.7213 36.6222 35.3721 37.5937 36.9734C38.4872 38.4552 39.2101 40.0306 39.749 41.6703C39.8834 42.0691 39.7353 42.5026 39.3549 42.6154Z" fill="white"/>
<circle cx="34.1385" cy="15.8809" r="1.42556" fill="white"/>
<circle cx="29.1488" cy="15.1681" r="0.712782" fill="white"/>
<circle cx="31.6443" cy="11.7819" r="1.78195" fill="white"/>
</g>
<defs>
<filter id="filter0_d_1560_1086" x="0" y="0" width="64" height="64" filterUnits="userSpaceOnUse" color-interpolation-filters="sRGB">
<feFlood flood-opacity="0" result="BackgroundImageFix"/>
<feColorMatrix in="SourceAlpha" type="matrix" values="0 0 0 0 0 0 0 0 0 0 0 0 0 0 0 0 0 0 127 0" result="hardAlpha"/>
<feOffset dy="4"/>
<feGaussianBlur stdDeviation="2"/>
<feComposite in2="hardAlpha" operator="out"/>
<feColorMatrix type="matrix" values="0 0 0 0 0 0 0 0 0 0 0 0 0 0 0 0 0 0 0.25 0"/>
<feBlend mode="normal" in2="BackgroundImageFix" result="effect1_dropShadow_1560_1086"/>
<feBlend mode="normal" in="SourceGraphic" in2="effect1_dropShadow_1560_1086" result="shape"/>
</filter>
</defs>
</svg>
