<svg width="49" height="71" viewBox="0 0 49 71" fill="none" xmlns="http://www.w3.org/2000/svg">
<path d="M0.75822 22.0637C1.01096 14.9606 3.22244 9.52324 7.39265 5.75166C11.5629 1.91722 17.3759 0 24.8317 0C29.697 0 33.8356 0.848606 37.2476 2.54582C40.7228 4.18017 43.3449 6.44312 45.1141 9.33466C46.8833 12.1633 47.7679 15.3692 47.7679 18.9522C47.7679 23.2267 46.7253 26.6525 44.6402 29.2297C42.5551 31.7441 40.1857 33.4413 37.5319 34.3214V34.6985C45.1773 37.5272 49 42.9332 49 50.9163C49 54.8765 48.0838 58.3652 46.2514 61.3825C44.4191 64.3997 41.7653 66.757 38.2901 68.4542C34.815 70.1514 30.6763 71 25.8743 71C17.9761 71 11.7208 69.1142 7.10832 65.3426C2.55899 61.5082 0.189555 55.6622 0 47.8048H18.1025C17.9761 50.3192 18.5132 52.2678 19.7137 53.6507C20.9142 55.0336 22.715 55.7251 25.1161 55.7251C26.9484 55.7251 28.3701 55.1594 29.381 54.0279C30.4552 52.8964 30.9923 51.3878 30.9923 49.502C30.9923 47.1133 30.2024 45.3533 28.6228 44.2218C27.1064 43.0903 24.6106 42.5246 21.1354 42.5246H17.8182V27.5325H21.0406C23.4417 27.5954 25.4636 27.2182 27.1064 26.4011C28.8124 25.521 29.6654 23.7924 29.6654 21.2151C29.6654 19.2665 29.1915 17.8207 28.2437 16.8778C27.2959 15.8721 26.0006 15.3692 24.3578 15.3692C22.5255 15.3692 21.167 16.0292 20.2824 17.3493C19.461 18.6065 18.9871 20.178 18.8607 22.0637H0.75822Z" fill="#D2DFF6" fill-opacity="0.5"/>
</svg>
