<svg width="49" height="71" viewBox="0 0 49 71" fill="none" xmlns="http://www.w3.org/2000/svg">
<path d="M0.191406 56.8193C6.38021 51.9316 11.4525 47.7192 15.4082 44.1821C19.3639 40.6449 22.6816 37.0113 25.3613 33.2812C28.041 29.4869 29.3809 25.8854 29.3809 22.4769C29.3809 20.4189 28.9023 18.8111 27.9453 17.6535C27.0521 16.4959 25.7122 15.9171 23.9258 15.9171C22.0755 15.9171 20.64 16.721 19.6191 18.3288C18.5983 19.8723 18.1198 22.1553 18.1836 25.178H0C0.191406 19.4543 1.43555 14.7274 3.73242 10.9973C6.0293 7.2029 9.02799 4.4375 12.7285 2.70109C16.429 0.900362 20.5443 0 25.0742 0C32.9219 0 38.7598 1.9615 42.5879 5.88451C46.416 9.80752 48.3301 14.8881 48.3301 21.1264C48.3301 27.8148 46.097 34.0851 41.6309 39.9375C37.2285 45.7899 31.7096 51.0312 25.0742 55.6617H49V71H0.191406V56.8193Z" fill="#D2DFF6" fill-opacity="0.5"/>
</svg>
